# xmcd
#
# Track frame offsets: 
#        150
#        14134
#        27332
#        38501
#        53484
#        68078
#        83103
#        92462
#        109725
#
# Disc length: 1695 seconds
#
# Revision: 0
# Processed by: cddbd v1.5.2PL0 Copyright (c) Steve Scherf et al.
# Submitted via: ExactAudioCopy v1.0b4
#
DISCID=64069d09
DTITLE=Muddy Waters - Mud In Your Ear (LP)
DYEAR=1973
DGENRE=Blues
TTITLE0=Diggin' My Potatoes
TTITLE1=Watch Dog
TTITLE2=Sting It
TTITLE3=Why' d You Do Me
TTITLE4=Natural Wig
TTITLE5=Mud In Your Ear
TTITLE6=Excuse Me Baby
TTITLE7=Sad Day Uptown
TTITLE8=Long Distance Call
EXTD=
EXTT0=
EXTT1=
EXTT2=
EXTT3=
EXTT4=
EXTT5=
EXTT6=
EXTT7=
EXTT8=
PLAYORDER=
